<svg width="153.91mm" height="181.4mm" version="1.1" viewBox="0 0 153.91 181.4" xmlns="http://www.w3.org/2000/svg">
 <g transform="translate(-22.83 -58.891)">
  <path d="m32.259 131.73c-0.5656-2.1852-1.707-5.9207-2.589-11.005-0.88198-5.0844-1.5046-11.518-1.4138-18.665 0.0908-7.1467 0.89501-15.007 1.8808-21.025 0.98578-6.0183 2.1532-10.195 3.5281-13.515 1.3749-3.3204 2.9574-5.785 4.423-7.1078s2.8148-1.5045 4.747-1.0376c1.9323 0.46686 4.4491 1.5826 8.4568 4.5527 4.0077 2.9701 9.5075 7.7954 15.422 13.775 5.9146 5.9794 12.244 13.113 15.56 16.743 3.3159 3.6299 3.6364 3.7634 4.4275 3.8537 0.79101 0.09024 2.1145 0.14318 4.309 0.11287 2.1945-0.03031 9.0845-0.281 13.546-0.29396 4.4618-0.01296 8.3948 0.14269 10.673 0.03884 2.2777-0.10385 2.9003-0.46705 6.7514-4.5998s10.938-12.043 16.268-17.555 8.9071-8.6307 11.796-10.914c2.889-2.2836 5.0903-3.7329 6.8691-4.6153 1.7787-0.88241 3.1006-1.1902 4.2652-1.2177 1.1646-0.02748 2.1554 0.22938 3.054 0.73373 0.89865 0.50435 1.7059 1.2566 2.5772 2.6047 0.87127 1.3482 1.8068 3.2926 2.7515 6.1083 0.9447 2.8157 1.8985 6.5025 2.5772 9.6392 0.67872 3.1367 1.0822 5.723 1.3574 7.6766s0.42189 3.2742 0.53197 7.5855c0.11007 4.3113 0.18343 11.611 0.0289 16.536-0.15456 4.9254-0.54244 7.5113-0.81865 9.4177-0.27621 1.9064-0.43918 3.1196-1.0446 5.2203-0.60541 2.1006-1.6507 5.0715-2.2471 7.1272-0.59635 2.0557-0.74278 3.1905-0.0915 6.3096 0.65133 3.1191 2.1001 8.2172 3.2098 12.583s1.8802 7.9976 2.3204 11.721c0.44025 3.7237 0.55031 7.5389 0.40357 10.887-0.14673 3.3477-0.55026 6.2274-1.1464 8.8322-0.59617 2.6048-1.3848 4.9342-2.8747 8.0046-1.4899 3.0705-3.6645 6.8532-5.8657 10.073s-4.4206 5.8606-6.6769 8.1811-4.549 4.3197-7.8877 6.6587c-3.3387 2.339-7.7222 5.0167-11.881 8.0481-4.1588 3.0314-8.1128 6.4337-11.965 8.9101-3.8522 2.4764-7.6123 4.0355-11.208 5.1362-3.5954 1.1007-7.0253 1.7426-10.557 2.1278-3.5312 0.38524-7.1629 0.51363-10.309 0.36689-3.146-0.14674-5.8055-0.5686-8.2912-1.1648-2.4856-0.59618-4.7967-1.3665-6.8879-2.1645-2.0912-0.79796-3.9621-1.6233-6.5303-3.366s-5.8331-4.4023-7.8233-6.0257c-1.9902-1.6234-2.7056-2.2104-5.2004-3.7145-2.4947-1.5042-6.7685-3.9254-10.667-6.6402-3.898-2.7148-7.4198-5.7231-10.309-8.6121-2.8891-2.8891-5.1453-5.6589-7.053-8.4379-1.9077-2.779-3.4669-5.5672-4.7353-8.4462s-2.2352-5.8158-2.8772-8.1728c-0.642-2.3571-0.95384-4.1181-1.1189-5.8056-0.16507-1.6875-0.18341-3.3019 9e-3 -5.998 0.19259-2.6962 0.59621-6.4755 1.0934-9.685 0.49722-3.2095 1.0803-5.8154 2.3918-10.107 1.3114-4.292 3.3478-10.254 4.3709-13.552s1.0334-3.9332 0.46777-6.1184z" style="fill:none;stroke-width:.26458px;stroke:#000"/>
  <path d="m46.739 114.77c-0.90811-0.16212-1.2194-1.6018-1.5826-3.8326s-0.77825-5.2533-1.1025-8.1003c-0.32425-2.847-0.55775-5.5191-0.72635-7.8018-0.16862-2.2827-0.27239-4.1766-0.2594-5.8627 0.013-1.6861 0.14271-3.1649 0.35054-4.5476 0.20782-1.3826 0.49262-2.6642 0.91418-3.6369 0.42156-0.9727 0.97943-1.6344 1.5565-1.9974 0.5771-0.36304 1.174-0.42792 1.8547-0.2788s1.4463 0.51246 2.821 1.5694c1.3747 1.057 3.3595 2.8082 5.6034 5.117 2.2439 2.3087 4.7472 5.1753 6.7058 7.5229 1.9586 2.3477 3.3723 4.1765 4.4035 5.5838s1.6797 2.3931 0.18813 3.7225c-1.4916 1.3295-5.1231 3.0026-7.6719 4.3191s-4.0143 2.2763-5.3601 3.2452c-1.3458 0.96891-2.5584 1.9365-3.9205 2.9807-1.3621 1.0443-2.8663 2.1595-3.7744 1.9974z" style="fill:none;stroke-width:.26458px;stroke:#000"/>
  <path d="m157.56 114.64c0.28526-0.55788 0.62249-1.6604 0.95964-3.3527 0.33716-1.6923 0.6745-3.9758 0.97279-7.0042 0.2983-3.0284 0.55775-6.8033 0.68745-10.169 0.1297-3.3657 0.1297-6.3233-2e-5 -8.5476-0.12971-2.2244-0.38915-3.7161-0.77822-4.7731-0.38908-1.057-0.90797-1.6796-1.4332-2.0169-0.52517-0.33721-1.057-0.38909-1.6992-0.27237-0.64217 0.11673-1.3941 0.40195-2.3866 1.0312-0.99253 0.62923-2.2242 1.6016-4.0144 3.3464-1.7902 1.7448-4.1374 4.2605-6.0182 6.3878-1.8808 2.1273-3.2945 3.8651-4.5397 5.4282s-2.3216 2.9507-3.061 3.9495c-0.73937 0.99879-1.1414 1.6083-1.336 2.0624-0.19467 0.45407-0.18171 0.75225 0.31599 1.089 0.4977 0.33673 1.487 0.71421 3.2572 1.4859 1.7703 0.77167 4.3259 1.9392 6.5697 3.1973 2.2438 1.2581 4.1765 2.6071 5.8821 4.0079 1.7056 1.4008 3.1843 2.8535 4.1247 3.6512 0.94044 0.79771 1.3425 0.94039 1.6603 1.0052 0.31781 0.0648 0.55138 0.0518 0.83664-0.50604z" style="fill:none;stroke-width:.26458px;stroke:#000"/>
  <path d="m66.312 144.84c-0.1686-0.81723-0.24642-1.9846 0.58368-2.9183 0.83011-0.93375 2.5685-1.6343 4.5269-2.0104s4.1378-0.42797 6.0314-0.22044c1.8935 0.20753 3.5021 0.67453 4.9158 1.349s2.633 1.5565 3.4112 2.5811 1.1154 2.1919 0.97279 3.6188-0.76514 3.1127-1.2565 4.16c-0.49132 1.0472-0.85139 1.4552-1.5002 1.7797-0.64882 0.32444-1.5851 0.56469-3.0657 0.32166s-3.5033-0.96914-5.6306-2.0068c-2.1273-1.0377-4.3581-2.3865-5.7501-3.2496-1.392-0.863-1.9804-1.2642-2.3955-1.6923s-0.67451-0.89501-0.84312-1.7122z" style="fill:none;stroke-width:.26458px;stroke:#000"/>
  <path d="m124.99 152.83c1.4766-0.62372 3.978-1.7869 5.9898-2.8454 2.0118-1.0585 3.5345-2.0125 4.5433-2.8838 1.0088-0.87128 1.5041-1.6602 1.7975-2.2746 0.29341-0.61441 0.38516-1.0548 0.38514-1.4765-3e-5 -0.42169-0.0918-0.82552-0.45847-1.2839-0.36667-0.45834-1.009-0.9722-1.805-1.4083-0.79602-0.43606-1.7903-0.81125-2.7625-1.0406s-1.9443-0.32102-2.9166-0.33937c-0.97229-0.0184-1.9442 0.0367-3.0175 0.2201-1.0732 0.18344-2.2469 0.49519-3.3577 0.88082-1.1108 0.38564-2.1543 0.84331-2.989 1.3478-0.83473 0.50446-1.4582 1.0546-1.9352 1.5316s-0.80704 0.88036-1.0456 1.3483c-0.23858 0.46793-0.38522 0.9995-0.4403 1.55-0.0551 0.5505-0.0184 1.1188 0.0183 1.7426 0.0367 0.62382 0.0734 1.3022 0.2385 1.9444 0.16512 0.64219 0.45851 1.2473 0.8438 1.7335 0.3853 0.4862 0.86214 0.85299 1.3024 1.1556 0.44024 0.30266 0.84383 0.54115 1.3758 0.6787 0.53196 0.13755 1.1925 0.17425 1.7485 0.15052 0.55606-0.0237 1.0081-0.10788 2.4847-0.73159z" style="fill:none;stroke-width:.26458px;stroke:#000"/>
  <path d="m119.76 172.33c-0.17512-1.0962 0.49936-2.9121 0.92747-3.8848 0.4281-0.97274 0.60971-1.1025 1.1472-1.6206s1.434-1.4275 2.6336-2.1667c1.1996-0.73917 2.7046-1.31 3.833-1.5953s1.8808-0.28529 2.6264-0.17506c0.74565 0.11024 1.4852 0.33082 2.1531 0.6291 0.66787 0.29828 1.2646 0.6745 1.7315 1.2062 0.46686 0.53168 0.80413 1.2192 0.95981 1.952 0.15567 0.73282 0.12973 1.5109-0.11671 2.3736-0.24644 0.86268-0.71322 1.8092-1.3294 2.633-0.61618 0.82379-1.3812 1.524-2.2763 2.1532-0.89513 0.62921-1.9194 1.1868-3.0109 1.4965s-2.2491 0.37122-3.4361 0.13772c-1.187-0.23349-2.4024-0.76184-3.5227-1.2142-1.1202-0.45233-2.1448-0.82844-2.3199-1.9246z" style="fill:none;stroke-width:.26458px;stroke:#000"/>
  <path d="m67.592 171.18c-0.57784-0.95391-1.0364-2.0728-1.2657-2.9167s-0.22926-1.4125 0.0184-1.9994c0.24764-0.58685 0.74313-1.1924 1.4033-1.7059s1.486-0.93555 2.5502-1.1831c1.0641-0.24757 2.366-0.32091 3.4389-0.22002 1.0729 0.1009 1.9169 0.3761 2.6689 0.65122 0.75199 0.27512 1.4125 0.55032 2.0866 1.0409 0.6741 0.49058 1.3802 1.2153 2.1014 2.4273s1.48 2.9517 1.8835 3.9881c0.40357 1.0364 0.4586 1.3848-0.25707 1.8895s-2.2006 1.1646-3.6987 1.6231c-1.4981 0.45849-3.1399 0.73735-4.6351 0.52639-1.4952-0.21096-2.9088-0.90042-3.9643-1.6397-1.0555-0.73924-1.7525-1.5279-2.3304-2.4818z" style="fill:none;stroke-width:.26458px;stroke:#000"/>
  <path d="m24.975 160.83c1.2451 2.8534 2.4903 5.7069 4.1636 7.8342s3.7744 3.528 6.1223 4.2414c2.3479 0.71336 4.9418 0.7393 7.6007 0.10373s5.383-1.9328 7.1469-2.5293 2.5682-0.49279 3.1906-0.33716 1.0636 0.36322 1.9324 1.3098 2.1662 2.6332 3.5411 4.6826 2.8276 4.4618 4.5786 6.6928 3.8004 4.2803 5.8498 5.9146c2.0494 1.6343 4.0987 2.8536 5.5645 3.4765 1.4657 0.62296 2.2959 0.64812 4.5134-0.95987 2.2174-1.608 5.7984-4.8516 9.2852-7.1055 3.4868-2.2538 7.3455-3.6924 10.329-4.0459 2.9831-0.35348 5.7909 0.25573 8.1929 1.1831 2.402 0.92735 4.5164 2.1986 6.3906 3.5345 1.8742 1.3359 3.5085 2.7368 5.0131 4.0404 1.5046 1.3035 2.8795 2.5098 3.886 3.2896 1.0065 0.77979 2.0495 1.3573 3.2123 1.0705 1.1628-0.28683 3.5846-1.617 5.5586-3.0502 1.974-1.4332 3.868-3.1715 5.4849-4.9774s2.9487-3.6678 4.3494-5.8531c1.4007-2.1853 2.8666-4.6891 4.0145-6.3103 1.1479-1.6212 1.9781-2.3607 2.8729-2.7626s1.855-0.46683 2.7373-0.38424c0.88232 0.0826 1.7117 0.31957 3.0798 0.94853s3.2882 1.6539 5.0693 2.2622 3.4235 0.80032 5.3452 0.44689c1.9217-0.35343 4.1232-1.2524 6.0949-2.7473 1.9717-1.4949 3.7146-3.5863 5.4569-5.6772" style="fill:none;stroke-width:.26458px;stroke:#000"/>
  <path d="m84.147 201.52c-0.22014-0.58706-0.66037-1.761-0.80708-2.8983s5e-5 -2.238 0.40361-3.1734c0.40356-0.9354 1.0641-1.706 2.0361-2.623 0.97198-0.91694 2.2565-1.9812 3.7054-2.7148 1.4489-0.73361 3.0635-1.1372 5.6128-1.3206 2.5494-0.1834 6.0352-0.1467 8.8898 0.36389s5.1062 1.5072 6.6202 2.4335c1.514 0.92631 2.3379 1.8251 2.9262 2.6815 0.58824 0.85643 0.95767 1.6889 1.1684 2.4618 0.21068 0.77291 0.26255 1.4862 0.23664 2.0894-0.0259 0.60318-0.12964 1.0959-0.50078 1.9744-0.37113 0.87851-1.0037 2.1306-1.9312 3.2917s-2.1464 2.2244-3.4955 3.1713-2.8274 1.7769-4.183 2.4255-2.5875 1.1154-3.3074 1.4332-0.92738 0.48631-1.0573 0.83037c-0.12987 0.34406-0.18169 0.86216-0.20765 2.0073-0.026 1.1451-0.026 2.9148-0.026 4.6851l2.9586 1.9264c0.89497 0.40209 1.7901 0.80423 2.5878 1.0636 0.7977 0.2594 1.4982 0.37615 2.1402 0.44099 0.64197 0.0648 1.2258 0.0778 1.9196 6e-3 0.69378-0.0713 1.4983-0.22705 2.3218-0.4994 0.82348-0.27235 1.6669-0.66162 2.646-1.2582 0.97907-0.59653 2.095-1.401 3.301-2.4061 1.2061-1.0051 2.5035-2.2117 3.2688-2.8601 0.76527-0.64845 0.99879-0.73927 1.1429-0.76031 0.1441-0.021 0.19931 0.0277 0.22686 0.0859 0.0276 0.0582 0.0276 0.12633-0.0131 0.27266-0.0406 0.14633-0.12138 0.3692-0.33562 0.82853s-0.56071 1.1523-0.85213 1.6899c-0.29143 0.53764-0.52893 0.92155-0.77384 1.2914s-0.49764 0.72622-0.84639 1.1399-0.79262 0.88344-1.2459 1.3093c-0.4533 0.42587-0.91831 0.80959-1.3838 1.1372-0.46545 0.32762-0.9321 0.59983-1.3021 0.79709s-0.64817 0.32161-1.0232 0.46875-0.85397 0.31983-1.2838 0.44796c-0.42978 0.12814-0.81216 0.21239-1.2274 0.29026-0.41526 0.0779-0.86238 0.14914-1.4139 0.19294-0.55149 0.0438-1.2061 0.06-1.6342 0.0584-0.42809-2e-3 -0.62904-0.0211-1.0445-0.0697-0.41544-0.0487-1.0438-0.12641-1.7443-0.26587-0.70058-0.13946-1.472-0.34043-2.265-0.58853-0.79294-0.24809-1.6067-0.54311-2.2714-0.78632s-1.1803-0.43449-1.5383-0.55085c-0.35807-0.11637-0.56604-0.15928-0.76396-0.19473-0.19792-0.0354-0.39547-0.0651-0.59497-0.0732-0.19951-8e-3 -0.40358 5e-3 -0.62747 0.0421-0.22389 0.0373-0.46675 0.0988-0.83835 0.21404-0.37161 0.11521-0.87032 0.28361-1.4266 0.49769-0.55631 0.21409-1.1688 0.47334-1.8321 0.7085-0.6633 0.23517-1.3763 0.44583-1.9877 0.60638s-1.1202 0.27075-1.67 0.35672c-0.54981 0.086-1.1396 0.14754-1.7754 0.18322-0.63574 0.0357-1.3164 0.0454-1.8953 0.0276-0.57893-0.0178-1.0554-0.0632-1.4866-0.12132-0.43113-0.0581-0.8199-0.12953-1.1876-0.21213-0.36774-0.0826-0.71728-0.17702-1.0961-0.28902s-0.78721-0.24165-1.1797-0.39246c-0.39246-0.15082-0.76844-0.3226-1.1771-0.52531s-0.84951-0.4361-1.336-0.75069c-0.48649-0.3146-1.0182-0.71011-1.5062-1.1122-0.48806-0.40211-0.93227-0.81065-1.2971-1.1592-0.36481-0.34858-0.65015-0.63718-1.036-1.0733-0.38588-0.43615-0.87229-1.0198-1.2122-1.4504s-0.53558-0.71092-0.69836-0.97973-0.2912-0.52245-0.39009-0.75752c-0.0989-0.23508-0.16702-0.44919-0.18804-0.61297-0.021-0.16378 5e-3 -0.27736 0.073-0.35179 0.0681-0.0744 0.17863-0.11019 0.31774-0.1037 0.13912 6e-3 0.30821 0.0553 0.45888 0.11846 0.15068 0.0632 0.28376 0.14109 0.52199 0.2918 0.23822 0.15072 0.58215 0.3746 1.0117 0.71178s0.94526 0.78799 1.3944 1.1884c0.4491 0.40046 0.83174 0.75068 1.2591 1.1244s0.89566 0.76772 1.461 1.1835c0.56535 0.4158 1.2214 0.84885 1.8083 1.1958s1.1025 0.60639 1.5792 0.81391c0.47664 0.20751 0.9145 0.36319 1.3 0.47659s0.72029 0.18491 1.0542 0.2465c0.3339 0.0616 0.66809 0.1135 1.0441 0.15564 0.37601 0.0421 0.79461 0.0746 1.3019 0.0713 0.50732-3e-3 1.1043-0.0422 1.7138-0.11351 0.60949-0.0713 1.2324-0.17515 1.9018-0.31942 0.66943-0.14426 1.3864-0.32919 1.9765-0.50265 0.59006-0.17346 1.054-0.33566 1.4592-0.49776 0.40521-0.16209 0.75242-0.32434 1.0684-0.50749 0.31601-0.18314 0.60162-0.38761 0.83497-0.60317 0.23334-0.21555 0.41512-0.44277 0.56418-0.65667 0.14907-0.2139 0.26595-0.4152 0.37122-0.67599 0.10526-0.26078 0.19944-0.5823 0.26749-0.93231 0.068-0.35001 0.11024-0.72977 0.13617-1.0993 0.0259-0.36951 0.0357-0.72972 3e-3 -1.4985-0.0331-0.76878-0.10901-1.948-0.18492-3.1265-1.4568-0.53337-2.9135-1.0667-4.1419-1.6017-1.2284-0.53498-2.228-1.0715-3.0534-1.5599-0.82549-0.48841-1.4766-0.9286-2.1003-1.4102s-1.2198-1.0043-1.7151-1.4766c-0.49528-0.47235-0.88965-0.89423-1.227-1.2884s-0.62563-0.77068-0.85493-1.1192c-0.22929-0.34853-0.40357-0.67416-0.49068-0.8369-0.0871-0.16275-0.0883-0.16275-0.30849-0.7498z" style="fill:none;stroke-width:.26458px;stroke:#000"/>
  <path d="m45.877 115.31c-0.59329-0.31935-1.0482-2.0783-1.7304-6.6902-2.5396-17.17-2.2934-27.307 0.72873-30.001 1.7457-1.5561 4.2161-0.30914 9.8146 4.954 4.9942 4.695 13.384 14.254 14.518 16.543 0.38639 0.77931 0.38668 0.86639 5e-3 1.4266-0.66266 0.97271-2.4357 2.0736-6.7744 4.2065-4.6259 2.274-7.1145 3.7599-10.599 6.3284-4.191 3.0896-5.2063 3.64-5.9629 3.2328z" style="stroke-width:.23623"/>
  <path d="m153.8 113.62c-5.5483-4.8251-9.6771-7.3594-16.906-10.377-2.4997-1.0435-3.1948-1.4461-3.1948-1.8504 0-1.1534 8.2827-11.178 14.286-17.291 7.8694-8.0129 11.212-8.3929 12.199-1.3868 0.3257 2.3134 0.33028 10.531 9e-3 15.533-0.4885 7.5972-1.5672 15.225-2.394 16.928-0.57119 1.1767-1.0885 0.9755-3.9992-1.5558z" style="stroke-width:.2348"/>
  <path d="m24.797 161.28c-1.649 0.56469-1.0745 2.7418-1.4651 4.071-1.2957 8.7065-0.0957 17.79 3.7496 25.718 5.3863 11.992 15.141 21.424 26.055 28.336 5.8636 3.715 11.673 7.4883 17.039 11.894 6.5459 5.0302 14.442 8.3549 22.694 8.8412 9.5528 0.48534 19.445-0.052 28.299-4.0474 7.1757-3.2451 13.158-8.5479 19.546-13.071 6.4442-4.935 13.694-8.8824 19.282-14.904 5.4193-5.6128 9.6516-12.34 12.902-19.437 2.5992-5.6303 3.4388-11.86 3.5378-18.017 0.10097-2.7451 0.17365-5.4912 0.30456-8.2351-4.0529 3.3743-7.2592 8.4241-12.74 9.438-5.1865 0.84996-9.5379-3.0675-14.48-3.7008-3.4934 0.35539-5.2481 3.9464-7.0902 6.4858-4.2445 6.6128-8.9719 13.679-16.393 16.905-2.5755 0.97282-4.3898-1.683-6.2455-2.9811-5.379-4.5131-11.268-9.5417-18.582-9.9531-6.994-0.46841-13.078 3.7962-18.285 7.9955-2.1912 1.6246-4.3272 3.5551-6.8029 4.6386-2.5435-0.4472-4.5618-2.3182-6.6614-3.7172-6.2334-4.8983-9.6993-12.324-14.838-18.203-2.3194-1.5782-5.1901-0.10118-7.589 0.49347-4.212 1.5127-9.0526 2.9208-13.33 0.86402-3.556-1.6085-5.6618-5.0803-7.3684-8.4345-0.33277-0.53886-0.87156-1.0153-1.5379-0.97951zm73.714 27.502c5.0977 0.15338 11.139 1.1065 14.444 5.5781 2.0409 3.2569 0.39616 7.4091-2.2041 9.7977-3.1717 3.2104-7.4412 4.8801-11.432 6.7702 0.10268 2.7361 0.20504 5.4722 0.30769 8.2083 3.5837 2.0656 7.8692 4.3834 12.077 2.9239 3.6148-1.0488 6.4728-3.9059 9.2777-6.0907-2.4468 5.1831-8.4348 8.505-14.061 7.0461-2.8486-0.51392-5.6126-1.9242-8.466-2.3056-5.3346 2.1668-11.613 3.9663-17.071 1.369-2.8476-1.5572-5.402-3.7683-7.0773-6.6335 3.6434 2.7412 7.2351 6.3882 11.96 6.949 3.7578-0.0184 8.02-0.20499 11.014-2.7953 1.8322-1.8084 1.4295-4.5784 1.4794-6.9157 0.0268-1.5186-1.2924-2.2885-2.5185-2.8029-4.3587-2.0056-9.1907-4.3051-11.428-8.8685-1.3599-2.6747-1.3512-6.3878 1.268-8.291 2.2295-2.085 5.0141-3.5952 8.0942-3.7412 1.3905-0.13656 2.9005-0.21081 4.3355-0.19775z" style="fill:#fee981;stroke-width:.44363"/>
  <path d="m41.041 58.891c-3.5147 0.5227-5.4776 4.0074-6.8673 6.9288-3.9579 9.2059-5.0496 19.328-5.8659 29.222-0.92276 11.86 0.23437 23.846 3.2852 35.333 0.6206 2.2855 0.87034 4.6858 5.3e-4 6.9445-2.2487 7.963-5.3748 15.755-6.796 23.959 1.8248 3.5981 3.4514 7.5651 6.8569 9.9927 2.9693 2.5339 7.1694 2.5821 10.832 2.0733 3.4688-0.70128 6.5978-2.8081 10.166-2.974 2.616 0.79885 3.8933 3.5872 5.5141 5.576 4.4668 6.5534 9.3733 13.651 17.038 16.675 2.6549 0.67484 4.6665-1.8604 6.6446-3.1652 5.4152-4.4016 11.618-9.1036 18.939-9.1038 6.4143 0.0996 11.955 4.0226 16.654 8.0725 2.3429 1.591 4.2107 4.1624 7.0483 4.8978 2.7438 0.24341 4.9287-1.9567 7.0993-3.287 6.2264-4.4199 9.7036-11.408 14.069-17.443 1.1938-1.8994 3.5478-3.0334 5.7361-2.2304 4.2262 1.2431 8.2786 4.456 12.905 3.3466 4.9345-1.0741 8.6413-4.9144 11.667-8.724-1.031-9.4856-4.2198-18.546-5.9578-27.892-0.84161-5.0495 2.0338-9.647 2.8928-14.495 2.0239-9.359 1.2264-19.012 1.25-28.509 0.0737-5.6582-0.64609-11.284-1.9958-16.775-1.3517-5.39-2.5978-11.047-5.8306-15.672-1.6908-2.403-4.9834-3.1461-7.6569-2.0857-5.5981 2.1289-10.03 6.3957-14.423 10.324-8.8336 8.205-16.579 17.513-25.016 26.077-1.3291 1.6192-3.058 1.8356-5.0526 1.7232-9.2254 0.23415-18.833 0.29442-28.071 0.3315-11.57-11.807-22.013-24.935-35.442-34.756-2.893-1.9465-6.0319-4.1377-9.6236-4.3633zm115.82 19.952c2.2569-0.02103 2.5906 2.7891 2.7616 4.4767 0.58443 9.1026 0.10998 18.266-1.2651 27.286-0.39063 1.3659-0.32565 3.1605-1.3803 4.1842-2.5672-1.0151-4.3191-3.4242-6.5924-4.9584-4.451-3.653-9.8934-5.6768-14.929-8.3292-0.89368-0.63224 0.63137-1.7013 0.79375-2.3564 4.7232-6.4411 10.016-12.609 15.996-17.976 1.3469-1.0434 2.8087-2.3547 4.6149-2.3266zm-109.56 0.03876c3.4613 1.1001 5.8224 4.1666 8.4138 6.546 4.3066 4.5713 8.7033 9.1101 12.011 14.478 1.0318 1.5571-1.1771 2.5811-2.2159 3.282-5.0339 2.7414-10.13 5.424-14.654 8.983-1.3592 0.75919-2.6129 2.307-4.251 2.2504-1.2518-1.6933-1.0888-4.0624-1.5737-6.036-1.0103-7.9764-2.0926-16.061-1.2882-24.059 0.31625-2.1134 0.89424-5.2724 3.5584-5.4446z" style="fill:#ff0;stroke-width:.31129"/>
  <path d="m123.02 179.5c-5.3537-1.755-6.0728-2.459-5.6144-5.4968 0.4467-2.9608 1.3058-4.8824 3.05-6.8227 2.0994-2.3354 3.6878-3.4618 6.6425-4.7107 2.8189-1.1915 4.9099-1.2096 7.4724-0.0648 2.3911 1.0683 3.4432 2.5612 3.7178 5.2754 0.18887 1.867 0.11089 2.3875-0.64378 4.2887-1.6658 4.1978-5.9441 7.7367-9.8934 8.1837-1.6914 0.19144-2.4933 0.0808-4.731-0.65275z" style="stroke-width:.31706"/>
  <path d="m73.273 179.85c-1.7955-0.53212-4.1068-1.9277-5.7281-3.4588-1.5443-1.4584-3.49-5.5015-3.689-7.6655-0.13839-1.5055-0.0644-1.7167 1.0554-3.0123 2.9452-3.4076 8.0311-4.175 13.484-2.0346 3.2747 1.2854 5.3707 3.86 7.567 9.2946 0.54935 1.3594 0.95707 2.761 0.90598 3.1146-0.0572 0.39583-0.76324 1.0061-1.8373 1.588-3.8609 2.0916-8.8955 3.0225-11.758 2.1741z" style="stroke-width:.32428"/>
  <path d="m98.655 188.53c-3.7812 0.0599-7.9874-0.12132-11.087 2.4545-2.273 1.7139-4.9046 4.0433-4.4836 7.2079 0.20788 4.3068 3.3578 7.6916 6.8032 9.9167 2.423 1.5915 5.1551 2.6155 7.8378 3.6732 0.12669 2.5784 0.90723 6.0957-1.54 7.8719-2.9665 1.6595-6.544 2.3356-9.9219 2.0071-4.8671-0.60553-8.0053-4.7096-11.86-7.2409-0.9411-0.64833-1.7065 0.67016-1.0501 1.4206 2.5822 4.0926 6.5433 7.7049 11.458 8.5525 4.2534 0.94961 8.5887-0.4442 12.557-1.8996 2.7359-1.0512 5.3693 0.94382 8.0203 1.4401 4.8846 1.428 10.828 0.43857 14.166-3.656 1.4115-1.5771 2.7194-3.3959 3.2383-5.468-0.61838-1.2402-1.8088 0.4377-2.5135 0.84542-2.8574 2.2672-5.6337 5.2198-9.3674 5.8906-2.635 0.27432-5.5213 0.13811-7.8135-1.4537-1.0643-0.77226-3.0249-1.142-2.4692-2.8448 0.0998-1.7536-0.21283-3.6562 0.24035-5.333 4.5225-2.3323 9.6898-4.2824 12.6-8.7354 1.5865-2.0702 2.0173-4.8742 1.2232-7.3391-2.008-4.6397-7.3581-6.5061-11.999-7.1472-1.3411-0.14764-2.6924-0.16944-4.0404-0.16296z" style="stroke-width:.22012"/>
 </g>
</svg>
